<svg width="24" height="24" viewBox="0 0 24 24" fill="none" xmlns="http://www.w3.org/2000/svg">
<path d="M1.98001 13.0002H5.77001C6.53001 13.0002 7.22001 13.4302 7.56001 14.1102L8.45001 15.9002C9.00001 17.0002 10 17.0002 10.24 17.0002H13.77C14.53 17.0002 15.22 16.5702 15.56 15.8902L16.45 14.1002C16.79 13.4202 17.48 12.9902 18.24 12.9902H21.98" stroke="#CDCDCD" stroke-linecap="round" stroke-linejoin="round"/>
<path d="M19 8C20.6569 8 22 6.65685 22 5C22 3.34315 20.6569 2 19 2C17.3431 2 16 3.34315 16 5C16 6.65685 17.3431 8 19 8Z" stroke="#F14985" stroke-width="1.5" stroke-linecap="round" stroke-linejoin="round"/>
<path d="M14 2H9C4 2 2 4 2 9V15C2 20 4 22 9 22H15C20 22 22 20 22 15V10" stroke="#CDCDCD" stroke-linecap="round" stroke-linejoin="round"/>
</svg>
